# xmcd
#
# Track frame offsets:
#	150
#	19605
#	36452
#	49077
#	69518
#	87909
#	108590
#	127189
#	144176
#	165140
#	184680
#	201190
#	218190
#	234322
#	253530
#	273232
#	293569
#
# Disc length: 4088 seconds
#
# Revision: 1
# Processed by: cddbd v1.5.2PL0 Copyright (c) Steve Scherf et al.
# Submitted via: audiograbber 1.83.01
#
DISCID=ed0ff611
DTITLE=Johnny Napp - Cowboy Up And Party Down Johnny Napp
DYEAR=1900
DGENRE=
TTITLE0=Cowboy Up And Party Down
TTITLE1=How Hot Was It
TTITLE2=Something I Hadn't Thought Of In Years
TTITLE3=It Wasn't Even My Goodbye
TTITLE4=The Woman I Can´t Do Without
TTITLE5=Life Is For The Living
TTITLE6=There´s Love
TTITLE7=Something Like A Broken Heart
TTITLE8=Born In The Sticks/raised On The Stones
TTITLE9=Fight Like A Girl
TTITLE10=Shes A Lady
TTITLE11=Advil And Orange Juice
TTITLE12=That´s Love
TTITLE13=Hope Lives
TTITLE14=Get In The Car
TTITLE15=How Cool Is That
TTITLE16=Data
EXTD=
EXTT0=
EXTT1=
EXTT2=
EXTT3=
EXTT4=
EXTT5=
EXTT6=
EXTT7=
EXTT8=
EXTT9=
EXTT10=
EXTT11=
EXTT12=
EXTT13=
EXTT14=
EXTT15=
EXTT16=
PLAYORDER=
